<svg xmlns="http://www.w3.org/2000/svg" viewBox="0 0 1195 1151" fill="#0e7a86">
  <path d="m564.5 126 .5 174.5 22.5 22.5L732 464.5v272l-.5.5h-50l.5 1.5 48 96-99.5.5-4.5-7.5-40-90.5H461.5l-1.5 1.5-43 94v2.5l-15-.5 44-97-162-.5V402.5l25.5-25.5L466 223.5 394.5 153 146 397.5v335l-.5.5H131V391.5l30.5-30.5 233-229 82 81 88-87ZM550 162l-63 62 36 34 27 27V162Zm-73 72L298 410v312h155l97-214V307l-73-73Zm89 87-1 187 108 214h45V472L566 321Zm-42 275-58 125 1 1h114l-57-126Zm235-100h91v157h121.5l1.5-1.5V496h90.5l.5.5V835h-91V670H850v165h-91V496ZM400 861h22.5l1.5 1.5q1.3 4.2-3.5 2.5l-4.5 2.5V891h32v-23.5l-1.5-1.5-5.5-1 1.5-4h22l.5 4-6.5 1-1.5 1.5v54l1.5 1.5 6.5 1-.5 3H441q-1.7-4.1 2.5-3l4.5-3.5V896h-32v25.5l1.5 1.5 6.5 1-.5 3H400q-1.5-3.7 1.5-3l5.5-3.5v-52l-2.5-2.5-4.5-1v-4Zm112 0h22.5l1.5 1.5q1.3 4.2-3.5 2.5l-4.5 2.5v54l1.5 1.5 6.5 1-.5 3H512q-1.5-3.7 1.5-3l5.5-3.5v-52l-1-2.5-6-1v-4Zm75 0 39.5 1q9.6 2.4 14.5 9.5 7.6 8.9 6 27l-5 15-6.5 7.5q-4.8 4.7-13 6H587q-1.5-3.7 1.5-3l5.5-3.5v-52l-2.5-2.5-4.5-1v-4Zm16 5v55l10 2h6l8-3 5-5 5-14q1-18-6-27-5-6-12-8h-16Zm118-5h7.5l1.5 1.5 21 59.5 6 2.5-1 2.5h-21.5l-.5-3 6-2v-4.5l-4-11.5h-24.5l-1.5 1.5-4 14.5 7 2.5-1.5 2.5h-17l-.5-2.5 6-4 21-59.5Zm3 10-11 28 1 2h20l-10-30Zm81-10h22.5l.5 4-7 1-1 2.5v53l1.5 1.5h17l4.5-2.5 4.5-13.5 4.5 1v15.5l-1 3.5h-45.5l-.5-1.5-.5-1.5 6.5-2.5 1-3v-48l-2.5-4.5-5.5-1.5 1-3.5Zm119.5 0q17.9-2.4 27.5 3.5v14l-3.5.5q-1.3 2.3-2.5-.5-.3-7.5-3-11.5l-8.5-2h-6l-7 2-6.5 5.5q-7.6 9.9-5 30 2 11 9.5 16.5 6 6 20 4l3.5-1v-16.5l-2.5-2.5q-3.7.8-4.5-1.5l.5-2.5H958l1 2.5-7 3v19l-1.5 1.5-11 3h-16q-12.7-2.2-18.5-11.5l-5-11-1-11 3-15q3.6-8.4 10.5-13.5l12-5Zm102 0h16q9.4 2.1 14.5 8.5 5.4 6.1 7 16v16q-2.5 14.5-12.5 21.5l-11 5h-14q-11.8-2.2-17.5-10.5l-5-11-1-16 2-10 4-8 6.5-6.5 11-5Zm4.5 4-9 4-6 9-3 14 1 13 7 14 8 4 5 1 7-1 4-2 6-8 3-11-1-19-5-10q-5-8-17-8Zm.5 90q15.8-1.7 20.5 7.5 4 4.5 3 14-1.8 7.6-7.5 11.5-4.5 4.5-15 3l-10.5-6.5q-3.8-4.7-4-13l2-7 5.5-6.5 6-3Zm.5 2-4 2q-6 4-8 12v5l3 7 10 6q9 1 13-2 5-4 7-10 1-8-2-12l-9-8h-10Zm-184.5 0h12l.5 1.5-11 54v5q1.3 2.8 2.5.5l4-1q3 1.5 0 3-2.9 4.1-11 3-4-1.5-2.5-8.5l10-52.5-7-2.5 2.5-2.5Z"/>
</svg>
